<?xml version="1.0" encoding="UTF-8" standalone="no"?>
<!DOCTYPE svg PUBLIC "-//W3C//DTD SVG 1.1//EN" "http://www.w3.org/Graphics/SVG/1.1/DTD/svg11.dtd">
<!-- <svg version="1.1" xmlns="http://www.w3.org/2000/svg" xmlns:xlink="http://www.w3.org/1999/xlink" preserveAspectRatio="xMidYMid meet" viewBox="344.5639097744361 330.27819548872174 111.73684210526318 91.21804511278197" width="53.87" height="43.61"><defs><path d="M453.3 331.28L453.3 359.85L388.64 418.5L388.64 388.42L453.3 331.28Z" id="aFZf6T5ED"></path><linearGradient id="gradientb2ThqnP5Op" gradientUnits="userSpaceOnUse" x1="420.97" y1="331.28" x2="420.97" y2="418.5"><stop style="stop-color: #06b6d4;stop-opacity: 1" offset="0%"></stop><stop style="stop-color: #67e8f9;stop-opacity: 1" offset="100%"></stop></linearGradient><path d="M410.23 331.28L410.23 359.85L345.56 418.5L345.56 388.42L410.23 331.28Z" id="a9fehgwfM"></path><linearGradient id="gradientk1wNV9Ostb" gradientUnits="userSpaceOnUse" x1="377.89" y1="331.28" x2="377.89" y2="418.5"><stop style="stop-color: #06b6d4;stop-opacity: 1" offset="0%"></stop><stop style="stop-color: #67e8f9;stop-opacity: 1" offset="100%"></stop></linearGradient></defs><g><g><use xlink:href="#aFZf6T5ED" opacity="1" fill="url(#gradientb2ThqnP5Op)"></use></g><g><use xlink:href="#a9fehgwfM" opacity="1" fill="url(#gradientk1wNV9Ostb)"></use></g></g></svg> -->

<svg xmlns="http://www.w3.org/2000/svg" width="50" height="41.02" viewBox="0 0 256 210"><rect x="0" y="0" width="256" height="210" fill="none" stroke="none" /><rect width="256" height="209.342" rx="5"/><path fill="#FFF" d="M28.241 21.774c-.855-.856-1.888-1.284-3.098-1.284s-2.246.432-3.11 1.296c-.852.852-1.284 1.888-1.284 3.098s.432 2.247 1.284 3.098l13.442 13.442l-13.43 13.43c-.864.864-1.296 1.9-1.308 3.11c.012 1.21.444 2.247 1.296 3.098c.864.852 1.9 1.284 3.098 1.296c1.222 0 2.259-.432 3.123-1.296l14.935-14.947c3.135-3.123 3.135-6.258 0-9.394L28.241 21.774Zm58.545 33.104c-.864-.864-1.913-1.296-3.135-1.296v-.006H54.817v.006c-1.222 0-2.26.432-3.123 1.296c-.864.864-1.296 1.901-1.296 3.123c0 1.222.432 2.271 1.296 3.135c.864.864 1.9 1.296 3.123 1.296v-.006H83.65v.006c1.222 0 2.27-.432 3.135-1.296c.864-.864 1.296-1.913 1.296-3.135c0-1.222-.432-2.259-1.296-3.123Z"/></svg>
